#!OML:ASF E:\Style4\Style4.ASF
:FULLY-SPECIFIED
:DEGREES
683
root -0.138831 17.8546 -1.98217 0.48833 -2.88232 1.29628
lowerback 6.64609 1.63031 -0.0644395
upperback 3.01053 2.17105 0.82045
thorax -0.656892 1.07849 0.72489
lowerneck -3.46013 -4.92122 -6.33983
upperneck 19.9152 -6.56373 2.51658
head 6.9426 -3.41291 1.3977
rclavicle -8.94531e-016 -4.77083e-015
rhumerus -5.99174 31.4418 -79.2919
rradius 105.195
rwrist 27.6465
rhand -26.7924 12.9714
rfingers 7.12502
rthumb -0.219563 -17.0082
lclavicle -8.94531e-016 -4.77083e-015
lhumerus -22.9581 -46.333 89.0269
lradius 82.5253
lwrist -15.1963
lhand -21.0089 31.513
lfingers 7.12502
lthumb 5.36574 61.425
rfemur -12.5582 2.52503 17.5218
rtibia 29.9423
rfoot -16.4355 -14.3417
rtoes -14.4429
lfemur -9.97861 -2.5815 -20.0074
ltibia 28.1814
lfoot -18.7946 10.4983
ltoes -14.7573
684
root -0.140472 17.8522 -1.98835 0.434995 -2.68984 1.1044
lowerback 6.73011 1.62971 0.103484
upperback 3.05255 2.18133 0.898144
thorax -0.657108 1.08445 0.708172
lowerneck -3.42936 -4.99313 -6.41546
upperneck 20.3218 -6.64537 2.42235
head 7.07361 -3.46628 1.37099
rclavicle 7.7526e-015 -3.97569e-016
rhumerus -6.56112 31.2648 -79.5627
rradius 103.74
rwrist 27.7282
rhand -27.2786 12.9729
rfingers 7.12502
rthumb -0.689133 -17.0058
lclavicle 7.7526e-015 -3.97569e-016
lhumerus -21.5879 -46.3685 88.0037
lradius 83.6012
lwrist -15.0423
lhand -21.7093 31.8955
lfingers 7.12502
lthumb 4.68951 61.8235
rfemur -12.4662 2.45743 17.7452
rtibia 29.8489
rfoot -16.3228 -14.537
rtoes -15.057
lfemur -10.034 -2.64765 -19.7769
ltibia 28.3107
lfoot -18.7964 10.3599
ltoes -14.6549
685
root -0.144268 17.8518 -1.99381 0.456762 -2.53266 1.04135
lowerback 6.73338 1.67063 0.156627
upperback 3.07515 2.23899 0.91154
thorax -0.634859 1.11361 0.68837
lowerneck -3.3632 -5.06498 -6.41535
upperneck 20.6126 -6.7402 2.35968
head 7.15961 -3.5178 1.34276
rclavicle -3.37934e-015 4.37326e-015
rhumerus -7.20015 31.0371 -79.8962
rradius 102.158
rwrist 27.7054
rhand -27.9957 12.6963
rfingers 7.12502
rthumb -1.38179 -17.279
lclavicle -3.37934e-015 4.37326e-015
lhumerus -20.097 -46.4423 86.8712
lradius 84.6459
lwrist -15.1047
lhand -22.6706 31.9325
lfingers 7.12502
lthumb 3.76124 61.8791
rfemur -12.4366 2.45137 17.8314
rtibia 29.7652
rfoot -16.329 -14.6078
rtoes -14.7973
lfemur -10.1644 -2.69405 -19.6819
ltibia 28.4231
lfoot -18.7031 10.2767
ltoes -14.9904
686
root -0.14632 17.8513 -2.0004 0.476666 -2.35662 1.07325
lowerback 6.72669 1.70704 0.116541
upperback 3.11002 2.28458 0.89994
thorax -0.596857 1.13612 0.696521
lowerneck -3.31206 -5.1502 -6.3828
upperneck 20.8143 -6.85595 2.30637
head 7.21922 -3.5756 1.31074
rclavicle -2.83268e-014 5.1684e-015
rhumerus -7.70148 30.6802 -80.2156
rradius 100.271
rwrist 27.5608
rhand -28.4721 13.2264
rfingers 7.12502
rthumb -1.84191 -16.7454
lclavicle -2.83268e-014 5.1684e-015
lhumerus -18.6017 -46.5566 85.7947
lradius 85.6447
lwrist -15.1584
lhand -23.5468 32.003
lfingers 7.12502
lthumb 2.915 61.9628
rfemur -12.4382 2.37378 17.7981
rtibia 29.7284
rfoot -16.3534 -14.6573
rtoes -14.3877
lfemur -10.3001 -2.78556 -19.7046
ltibia 28.5339
lfoot -18.6721 10.2366
ltoes -15.2154
687
root -0.149333 17.8514 -2.00924 0.47176 -2.12499 1.04014
lowerback 6.77785 1.70922 0.130985
upperback 3.14593 2.28856 0.912488
thorax -0.588205 1.13815 0.700118
lowerneck -3.3384 -5.24593 -6.44438
upperneck 21.0736 -6.9854 2.31625
head 7.3182 -3.64136 1.3105
rclavicle 3.4191e-014 -7.55382e-015
rhumerus -8.18749 30.3391 -80.5281
rradius 98.2628
rwrist 27.4328
rhand -28.7413 13.9574
rfingers 7.12502
rthumb -2.10189 -16.012
lclavicle 3.4191e-014 -7.55382e-015
lhumerus -17.1404 -46.698 84.7322
lradius 86.843
lwrist -14.8451
lhand -23.9402 32.4573
lfingers 7.12502
lthumb 2.53515 62.4219
rfemur -12.4299 2.25977 17.8443
rtibia 29.7395
rfoot -16.3911 -14.7485
rtoes -14.1468
lfemur -10.3966 -2.90234 -19.6448
ltibia 28.6021
lfoot -18.6973 10.0682
ltoes -14.8187
688
root -0.155474 17.849 -2.01972 0.455534 -1.92732 0.943165
lowerback 6.87688 1.73455 0.176074
upperback 3.17627 2.32569 0.94296
thorax -0.611683 1.15689 0.700893
lowerneck -3.32737 -5.33716 -6.46253
upperneck 21.1933 -7.11095 2.31745
head 7.36264 -3.70243 1.30282
rclavicle -3.8763e-015 7.15625e-015
rhumerus -8.70962 30.1028 -80.8608
rradius 96.4171
rwrist 27.154
rhand -28.6671 13.6632
rfingers 7.12502
rthumb -2.03017 -16.3068
lclavicle -3.8763e-015 7.15625e-015
lhumerus -15.6938 -46.7616 83.6741
lradius 88.0433
lwrist -14.6363
lhand -24.2655 32.4756
lfingers 7.12502
lthumb 2.22092 62.4438
rfemur -12.4443 2.18583 17.9851
rtibia 29.7956
rfoot -16.3639 -14.9052
rtoes -14.1508
lfemur -10.4792 -2.99759 -19.5051
ltibia 28.6617
lfoot -18.6019 10.003
ltoes -15.1267
689
root -0.157854 17.8474 -2.02223 0.421789 -1.90663 0.94471
lowerback 6.87134 1.81103 0.133413
upperback 3.26017 2.42383 0.937868
thorax -0.524877 1.20545 0.714321
lowerneck -3.34967 -5.40719 -6.47353
upperneck 21.2555 -7.20644 2.32667
head 7.39261 -3.7474 1.29851
rclavicle -4.57205e-015 3.97569e-015
rhumerus -9.16435 29.8482 -81.2009
rradius 94.3464
rwrist 27.0145
rhand -28.9185 13.3015
rfingers 7.12502
rthumb -2.273 -16.6662
lclavicle -4.57205e-015 3.97569e-015
lhumerus -14.0712 -46.6442 82.4887
lradius 89.1122
lwrist -14.8046
lhand -24.4959 31.9501
lfingers 7.12502
lthumb 1.99839 61.9205
rfemur -12.4692 2.18878 17.99
rtibia 29.8938
rfoot -16.4107 -14.9509
rtoes -14.1279
lfemur -10.4948 -3.00316 -19.4974
ltibia 28.7183
lfoot -18.5946 9.96366
ltoes -15.1052
690
root -0.158267 17.8465 -2.02617 0.416247 -1.90759 0.976639
lowerback 6.85554 1.90398 0.0840187
upperback 3.32055 2.54347 0.915903
thorax -0.456506 1.2648 0.712643
lowerneck -3.40516 -5.4916 -6.49849
upperneck 21.431 -7.32192 2.34232
head 7.46773 -3.80233 1.29477
rclavicle -2.48481e-015 -4.37326e-015
rhumerus -9.62647 29.3937 -81.5527
rradius 91.8964
rwrist 27.1529
rhand -29.616 13.9618
rfingers 7.12502
rthumb -2.94664 -15.9976
lclavicle -2.48481e-015 -4.37326e-015
lhumerus -12.4442 -46.4112 81.304
lradius 90.3744
lwrist -15.4166
lhand -23.8451 31.8708
lfingers 7.12502
lthumb 2.62697 61.8344
rfemur -12.5208 2.10918 17.9484
rtibia 30.0328
rfoot -16.4886 -14.7784
rtoes -13.5887
lfemur -10.5437 -2.96953 -19.5377
ltibia 28.7796
lfoot -18.6191 9.97762
ltoes -15.3231
691
root -0.160618 17.8462 -2.03405 0.409104 -1.79355 0.976468
lowerback 6.88891 1.95661 0.06484
upperback 3.34565 2.61215 0.906497
thorax -0.450363 1.29898 0.708132
lowerneck -3.45117 -5.54081 -6.54878
upperneck 21.6469 -7.39836 2.40979
head 7.5557 -3.83651 1.31514
rclavicle -1.05356e-014 6.36111e-015
rhumerus -10.0685 28.9712 -81.9474
rradius 89.2682
rwrist 26.9944
rhand -30.3086 14.6224
rfingers 7.12502
rthumb -3.61548 -15.3266
lclavicle -1.05356e-014 6.36111e-015
lhumerus -10.9488 -46.0949 80.287
lradius 91.7012
lwrist -16.1826
lhand -23.1695 32.2597
lfingers 7.12502
lthumb 3.27937 62.2142
rfemur -12.5154 1.98036 17.9608
rtibia 30.1578
rfoot -16.6621 -14.5545
rtoes -12.1949
lfemur -10.614 -2.97388 -19.5252
ltibia 28.8371
lfoot -18.5528 9.88725
ltoes -15.1977
